<svg width="227" height="67" viewBox="0 0 227 67" fill="none" xmlns="http://www.w3.org/2000/svg">
<path d="M21.616 66.2C15.152 66.2 9.99997 65.016 6.15997 62.648C2.38397 60.28 0.495972 56.504 0.495972 51.32C0.495972 48.376 1.48797 45.816 3.47197 43.64C5.45597 41.464 7.98397 39.864 11.056 38.84C8.49597 37.432 7.21597 35.512 7.21597 33.08C7.21597 31.8 7.50397 30.808 8.07997 30.104C8.65597 29.4 9.48797 28.632 10.576 27.8C8.52797 26.776 6.79997 25.176 5.39197 23C4.04797 20.824 3.37597 18.264 3.37597 15.32C3.37597 5.72 9.45597 0.919998 21.616 0.919998H39.376V3.32L33.136 4.28C35.056 5.496 36.656 7.064 37.936 8.984C39.216 10.904 39.856 13.016 39.856 15.32C39.856 24.92 33.776 29.72 21.616 29.72C14.896 29.72 11.536 30.84 11.536 33.08C11.536 35.32 14.896 36.44 21.616 36.44C27.824 36.44 32.88 37.688 36.784 40.184C40.752 42.616 42.736 46.328 42.736 51.32C42.736 56.504 40.816 60.28 36.976 62.648C33.2 65.016 28.08 66.2 21.616 66.2ZM21.616 26.36C24.496 26.36 26.8 25.496 28.528 23.768C30.32 21.976 31.216 19.16 31.216 15.32C31.216 11.672 30.32 8.92 28.528 7.064C26.8 5.208 24.496 4.28 21.616 4.28C18.736 4.28 16.4 5.176 14.608 6.968C12.88 8.696 12.016 11.48 12.016 15.32C12.016 19.16 12.88 21.976 14.608 23.768C16.4 25.496 18.736 26.36 21.616 26.36ZM21.616 62.36C25.456 62.36 28.496 61.432 30.736 59.576C32.976 57.784 34.096 55.032 34.096 51.32C34.096 44.92 30.256 41.24 22.576 40.28L17.296 39.8C14.672 40.824 12.656 42.264 11.248 44.12C9.83997 45.976 9.13597 48.376 9.13597 51.32C9.13597 55.032 10.256 57.784 12.496 59.576C14.736 61.432 17.776 62.36 21.616 62.36Z" fill="white"/>
<path d="M62.05 47.96C57.698 47.96 53.922 46.936 50.722 44.888C47.522 42.776 45.09 39.928 43.426 36.344C41.762 32.76 40.93 28.792 40.93 24.44C40.93 20.088 41.762 16.12 43.426 12.536C45.09 8.952 47.522 6.136 50.722 4.088C53.922 1.976 57.698 0.919998 62.05 0.919998C66.402 0.919998 70.178 1.976 73.378 4.088C76.578 6.136 79.01 8.952 80.674 12.536C82.338 16.12 83.17 20.088 83.17 24.44C83.17 28.792 82.338 32.76 80.674 36.344C79.01 39.928 76.578 42.776 73.378 44.888C70.178 46.936 66.402 47.96 62.05 47.96ZM62.05 44.12C64.418 44.12 66.498 43.256 68.29 41.528C70.146 39.8 71.554 37.432 72.514 34.424C73.538 31.416 74.05 28.088 74.05 24.44C74.05 20.792 73.538 17.464 72.514 14.456C71.554 11.448 70.146 9.08 68.29 7.352C66.498 5.624 64.418 4.76 62.05 4.76C59.682 4.76 57.57 5.624 55.714 7.352C53.922 9.08 52.514 11.448 51.49 14.456C50.53 17.464 50.05 20.792 50.05 24.44C50.05 28.088 50.53 31.416 51.49 34.424C52.514 37.432 53.922 39.8 55.714 41.528C57.57 43.256 59.682 44.12 62.05 44.12Z" fill="white"/>
<path d="M87.2575 12.92C85.7855 9.336 84.3135 6.84 82.8415 5.432C81.4335 3.96 79.5455 3.16 77.1775 3.032V1.112C77.4975 1.112 77.9775 1.08 78.6175 1.016C79.2575 0.951998 79.8975 0.919998 80.5375 0.919998C83.9935 0.919998 87.0335 1.816 89.6575 3.608C92.3455 5.336 94.5855 8.44 96.3775 12.92L104.537 33.08L112.697 12.44C111.161 9.048 109.689 6.68 108.281 5.336C106.937 3.928 105.209 3.16 103.097 3.032V1.112C103.417 1.112 103.897 1.08 104.537 1.016C105.177 0.951998 105.817 0.919998 106.457 0.919998C109.913 0.919998 112.953 1.816 115.577 3.608C118.265 5.336 120.505 8.44 122.297 12.92L130.457 33.08L142.937 1.88H147.737L129.017 47.96H127.097L115.097 18.2L103.097 47.96H101.177L87.2575 12.92Z" fill="white"/>
<path d="M164.252 47.96C159.452 47.96 155.516 46.68 152.444 44.12C149.436 41.56 147.932 37.08 147.932 30.68V13.4C147.932 10.136 147.484 7.736 146.588 6.2C145.692 4.6 143.9 3.8 141.212 3.8H140.252V1.88H147.932C150.3 1.88 152.06 2.2 153.212 2.84C154.428 3.416 155.292 4.504 155.804 6.104C156.316 7.704 156.572 10.136 156.572 13.4V30.68C156.572 35.16 157.564 38.456 159.548 40.568C161.596 42.616 164.124 43.64 167.132 43.64C170.524 43.64 173.724 41.944 176.732 38.552V1.88H185.372V47H180.572L177.212 43.16H176.732C175.388 44.504 173.628 45.656 171.452 46.616C169.34 47.512 166.94 47.96 164.252 47.96Z" fill="white"/>
<path d="M208.139 47.96C203.787 47.96 200.107 46.936 197.099 44.888C194.091 42.776 191.819 39.96 190.283 36.44C188.747 32.856 187.979 28.856 187.979 24.44C187.979 20.088 188.747 16.12 190.283 12.536C191.819 8.952 194.027 6.136 196.907 4.088C199.851 1.976 203.275 0.919998 207.179 0.919998C213.643 0.919998 218.443 2.744 221.579 6.392C224.779 9.976 226.379 15.192 226.379 22.04L226.187 25.88H197.099C197.099 31.256 198.251 35.64 200.555 39.032C202.859 42.424 206.027 44.12 210.059 44.12C213.067 44.12 215.595 43.48 217.643 42.2C219.755 40.92 221.707 39 223.499 36.44L225.419 37.88C223.307 41.4 220.843 43.96 218.027 45.56C215.211 47.16 211.915 47.96 208.139 47.96ZM217.259 22.04C217.259 16.408 216.427 12.12 214.763 9.176C213.099 6.232 210.571 4.76 207.179 4.76C205.259 4.76 203.531 5.528 201.995 7.064C200.459 8.536 199.243 10.584 198.347 13.208C197.515 15.832 197.099 18.776 197.099 22.04H217.259Z" fill="white"/>
</svg>
